<?xml version="1.0" encoding="UTF-8"?>
<svg width="44px" height="36px" viewBox="0 0 44 36" version="1.1" xmlns="http://www.w3.org/2000/svg" xmlns:xlink="http://www.w3.org/1999/xlink">
    <!-- Generator: Sketch 61.2 (89653) - https://sketch.com -->
    <title>Group</title>
    <desc>Created with Sketch.</desc>
    <g id="PLACEHOLDER" stroke="none" stroke-width="1" fill="none" fill-rule="evenodd">
        <g id="OC_LandingPage_Desktop_1" transform="translate(-1012.000000, -932.000000)" fill="#00C78E" fill-rule="nonzero">
            <g id="ICONS" transform="translate(60.000000, 908.000000)">
                <g id="3" transform="translate(952.000000, 24.000000)">
                    <g id="Group">
                        <path d="M38.8838625,35.9909 L4.4702875,35.9909 C2.8658875,35.9909 1.545775,35.3854 0.7524125,34.28535 C-0.04095,33.1853 -0.1987125,31.7421625 0.30765,30.21975 L3.9872,17.76325 C5.0087625,14.691125 8.461425,12.201225 11.6872875,12.201225 L31.885525,12.201225 C35.112,12.201225 38.544275,14.6997 39.5350375,17.7701625 L43.098475,30.217825 C43.5876875,31.732625 43.4175,33.1799625 42.6153875,34.282725 C41.8131,35.3840875 40.4875625,35.9909 38.8838625,35.9909 Z M12.1972621,14.5 C9.45701142,14.5 6.52422411,16.4816404 5.6597209,18.916778 L2.23912537,29.7653524 C1.83257785,30.9102596 1.94759549,31.9731699 2.55993838,32.7675331 C3.17163053,33.5620486 4.21150719,34 5.48825187,34 L37.4798327,34 C38.7572282,34 39.8027988,33.5608293 40.4227878,32.7621987 C41.0427768,31.9647873 41.1678809,30.8977619 40.7759749,29.7594084 L37.4633203,18.9185308 C36.6248465,16.4863651 33.7124761,14.5 30.9740963,14.5 L12.1972621,14.5 L12.1972621,14.5 Z" id="Shape"></path>
                        <path d="M13.0498687,34.6006125 C12.4695261,34.6006125 12,34.4328211 12,34.2256376 L12,13.9755874 C12,13.7683101 12.4695261,13.6006125 13.0498687,13.6006125 C13.6302113,13.6006125 14.1,13.7683101 14.1,13.9755874 L14.1,34.2256376 C14.1,34.4328211 13.6302113,34.6006125 13.0498687,34.6006125 Z" id="Path-Copy-5"></path>
                        <path d="M30.9498687,34.6006125 C30.3695261,34.6006125 29.9,34.4328211 29.9,34.2256376 L29.9,13.9755874 C29.9,13.7683101 30.3695261,13.6006125 30.9498687,13.6006125 C31.5302113,13.6006125 32,13.7683101 32,13.9755874 L32,34.2256376 C32,34.4328211 31.5302113,34.6006125 30.9498687,34.6006125 Z" id="Path-Copy-7" transform="translate(30.950000, 24.100612) scale(-1, 1) translate(-30.950000, -24.100612) "></path>
                        <path d="M12.3498947,12.9964103 C12.3205822,12.9964103 12.2904822,12.9934553 12.2610822,12.9872705 C12.0738322,12.9486497 11.9624447,12.7983585 12.0116197,12.6515719 L15.5100447,2.2106244 C15.5586072,2.06411276 15.7532947,1.97690672 15.9371322,2.01497776 C16.1243822,2.05359856 17.660259,1.98041074 17.611084,2.12719727 L13.9516602,13.0166016 C13.9107102,13.139817 12.5049447,12.9964103 12.3498947,12.9964103 Z" id="Path"></path>
                        <path d="M26.3498947,12.9964103 C26.3205822,12.9964103 26.2904822,12.9934553 26.2610822,12.9872705 C26.0738322,12.9486497 25.9624447,12.7983585 26.0116197,12.6515719 L29.5100447,2.2106244 C29.5586072,2.06411276 29.7532947,1.97690672 29.9371322,2.01497776 C30.1243822,2.05359856 31.660259,1.98041074 31.611084,2.12719727 L27.9516602,13.0166016 C27.9107102,13.139817 26.5049447,12.9964103 26.3498947,12.9964103 Z" id="Path-Copy-12" transform="translate(28.806120, 7.536316) scale(-1, 1) translate(-28.806120, -7.536316) "></path>
                        <path d="M15.987001,2.1 C15.913573,2.1 15.8401449,2.08370103 15.784087,2.05118647 C15.671971,1.98607397 15.671971,1.88056838 15.784087,1.81549757 L17.4722575,0.148834374 C17.5843734,0.0837218754 25.8447369,0.0837218754 25.9568528,0.148834374 C26.0689688,0.213946872 26.2135645,0.319410778 26.1014486,0.384481591 L28.1,2.05118647 C28.0440856,2.08370103 16.0604291,2.1 15.987001,2.1 Z" id="Path"></path>
                    </g>
                </g>
            </g>
        </g>
    </g>
</svg>