<?xml version="1.0" encoding="UTF-8"?>
<svg width="43px" height="39px" viewBox="0 0 43 39" version="1.1" xmlns="http://www.w3.org/2000/svg" xmlns:xlink="http://www.w3.org/1999/xlink">
    <!-- Generator: Sketch 61.2 (89653) - https://sketch.com -->
    <title>Group 7</title>
    <desc>Created with Sketch.</desc>
    <g id="PLACEHOLDER" stroke="none" stroke-width="1" fill="none" fill-rule="evenodd">
        <g id="OC_LandingPage_Desktop_1" transform="translate(-547.000000, -932.000000)" fill="#00C78E" stroke="#00C78E" stroke-width="0.5">
            <g id="ICONS" transform="translate(60.000000, 908.000000)">
                <g id="2" transform="translate(488.000000, 24.000000)">
                    <g id="Group-7">
                        <path d="M11.3449919,35.5971897 C15.7109518,17.7985948 4.79605221,17.35363 10.908396,0 C6.54243614,18.2435597 17.8939317,16.4637002 12.6547799,36.9320843 C12.2181839,38.7119438 10.908396,38.2669789 11.3449919,35.5971897 Z" id="Path-Copy" transform="translate(11.533333, 19.000000) scale(-1, 1) translate(-11.533333, -19.000000) "></path>
                        <path d="M20.3449919,35.5971897 C24.7109518,17.7985948 13.7960522,17.35363 19.908396,0 C15.5424361,18.2435597 26.8939317,16.4637002 21.6547799,36.9320843 C21.2181839,38.7119438 19.908396,38.2669789 20.3449919,35.5971897 Z" id="Path-Copy-8" transform="translate(20.533333, 19.000000) scale(-1, 1) translate(-20.533333, -19.000000) "></path>
                        <path d="M29.3449919,35.5971897 C33.7109518,17.7985948 22.7960522,17.35363 28.908396,0 C24.5424361,18.2435597 35.8939317,16.4637002 30.6547799,36.9320843 C30.2181839,38.7119438 28.908396,38.2669789 29.3449919,35.5971897 Z" id="Path-Copy-9" transform="translate(29.533333, 19.000000) scale(-1, 1) translate(-29.533333, -19.000000) "></path>
                        <path d="M38.3449919,35.5971897 C42.7109518,17.7985948 31.7960522,17.35363 37.908396,0 C33.5424361,18.2435597 44.8939317,16.4637002 39.6547799,36.9320843 C39.2181839,38.7119438 37.908396,38.2669789 38.3449919,35.5971897 Z" id="Path-Copy-10" transform="translate(38.533333, 19.000000) scale(-1, 1) translate(-38.533333, -19.000000) "></path>
                        <path d="M2.34499195,35.5971897 C6.71095177,17.7985948 -4.20394779,17.35363 1.90839597,0 C-2.45756386,18.2435597 8.89393168,16.4637002 3.6547799,36.9320843 C3.21818391,38.7119438 1.90839597,38.2669789 2.34499195,35.5971897 Z" id="Path-Copy-11" transform="translate(2.533333, 19.000000) scale(-1, 1) translate(-2.533333, -19.000000) "></path>
                    </g>
                </g>
            </g>
        </g>
    </g>
</svg>