<?xml version="1.0" encoding="UTF-8"?>
<svg width="42px" height="37px" viewBox="0 0 42 37" version="1.1" xmlns="http://www.w3.org/2000/svg" xmlns:xlink="http://www.w3.org/1999/xlink">
    <!-- Generator: Sketch 61.2 (89653) - https://sketch.com -->
    <title>Group 9</title>
    <desc>Created with Sketch.</desc>
    <g id="PLACEHOLDER" stroke="none" stroke-width="1" fill="none" fill-rule="evenodd" stroke-linecap="round" stroke-linejoin="round">
        <g id="OC_LandingPage_Desktop_1" transform="translate(-59.000000, -931.000000)" stroke="#00C78E" stroke-width="2.16">
            <g id="ICONS" transform="translate(60.000000, 908.000000)">
                <g id="1" transform="translate(0.000000, 24.000000)">
                    <g id="Group-9" transform="translate(0.100000, 0.000000)">
                        <path d="M17.20431,0.17973 C17.20431,4.47543 11.08071,4.47543 11.08071,8.77383 C11.08071,13.07223 17.20431,13.07223 17.20431,17.37063 C17.20431,21.67443 11.08071,21.67443 11.08071,25.98093 C11.08071,30.28473 17.20431,30.28473 17.20431,34.58853" id="Stroke-1"></path>
                        <path d="M6.30171,0.17973 C6.30171,4.47543 0.17811,4.47543 0.17811,8.77383 C0.17811,13.07223 6.30171,13.07223 6.30171,17.37063 C6.30171,21.67443 0.17811,21.67443 0.17811,25.98093 C0.17811,30.28473 6.30171,30.28473 6.30171,34.58853" id="Stroke-3"></path>
                        <path d="M28.10448,0.17973 C28.10448,4.47543 21.98088,4.47543 21.98088,8.77383 C21.98088,13.07223 28.10448,13.07223 28.10448,17.37063 C28.10448,21.67443 21.98088,21.67443 21.98088,25.98093 C21.98088,30.28473 28.10448,30.28473 28.10448,34.58853" id="Stroke-5"></path>
                        <path d="M39.00735,0.17973 C39.00735,4.47543 32.88375,4.47543 32.88375,8.77383 C32.88375,13.07223 39.00735,13.07223 39.00735,17.37063 C39.00735,21.67443 32.88375,21.67443 32.88375,25.98093 C32.88375,30.28473 39.00735,30.28473 39.00735,34.58853" id="Stroke-7"></path>
                    </g>
                </g>
            </g>
        </g>
    </g>
</svg>