<?xml version="1.0" encoding="UTF-8"?>
<svg width="77px" height="77px" viewBox="0 0 77 77" version="1.1" xmlns="http://www.w3.org/2000/svg" xmlns:xlink="http://www.w3.org/1999/xlink">
    <!-- Generator: Sketch 61.2 (89653) - https://sketch.com -->
    <title>Stamp</title>
    <desc>Created with Sketch.</desc>
    <defs>
        <polygon id="path-1" points="0.458216772 0.168360736 76.4582168 0.168360736 76.4582168 78.1683607 0.458216772 78.1683607"></polygon>
    </defs>
    <g id="PLACEHOLDER" stroke="none" stroke-width="1" fill="none" fill-rule="evenodd">
        <g id="OC_LandingPage_Desktop-Copy-2" transform="translate(-43.000000, -419.000000)">
            <g id="Left-Column" transform="translate(42.000000, 419.000000)">
                <g id="Stamp">
                    <path d="M72.9905571,36.5997448 C71.6664565,36.6053573 70.5948652,37.6860417 70.6004392,39.0094429 C70.6053573,40.3328441 71.6867411,41.4051348 73.0094429,41.3995608 C74.3335435,41.3939432 75.4051348,40.3132589 75.3995608,38.9898577 C75.3946427,37.6664565 74.3139583,36.5948652 72.9905571,36.5997448 M73.0164376,42.9999657 C70.8110021,43.0090243 69.009162,41.2218731 69.0000343,39.0164376 C68.9909757,36.8110021 70.7781269,35.009162 72.9835624,35.0000343 C75.1896974,34.9909757 76.990838,36.7781269 76.9999657,38.9835624 C77.0090243,41.1889979 75.2218731,42.990838 73.0164376,42.9999657" id="Fill-1" stroke="#00C78E" stroke-width="0.5" fill="#00C78E"></path>
                    <g id="Group-5">
                        <mask id="mask-2" fill="white">
                            <use xlink:href="#path-1"></use>
                        </mask>
                        <g id="Clip-4"></g>
                        <path d="M66.3386332,62.6317637 L58.3320908,62.6642299 C60.1716623,59.340149 61.6315079,55.534176 62.6133509,51.3729293 L73.0126744,51.3302594 C71.4734693,55.5165514 69.1946522,59.3378299 66.3386332,62.6317637 L66.3386332,62.6317637 Z M47.1700858,74.1920704 C51.3982858,72.0553269 54.990687,68.3212434 57.7424313,63.703614 L65.3983155,63.6716115 C60.5795332,68.8393121 54.2612256,72.5738594 47.1700858,74.1920704 L47.1700858,74.1920704 Z M48.7286693,63.7407183 L56.5372744,63.708252 C53.0431497,69.3541342 48.2912693,73.4045318 42.8542212,74.670252 C45.3462016,72.5752508 47.3172699,68.4678054 48.7286693,63.7407183 L48.7286693,63.7407183 Z M39.5538813,75.0867477 C39.743975,73.1972115 39.7795022,68.6254987 39.7601237,63.7773588 L47.6582389,63.7448925 C45.7586864,69.983052 42.9266598,74.8311919 39.5538813,75.0867477 L39.5538813,75.0867477 Z M47.4529193,13.4787772 L39.5548041,13.5112434 C39.5349642,8.67516245 39.4625256,4.10344957 39.2567446,2.21576859 C42.6313687,2.4434962 45.5026136,7.2568508 47.4529193,13.4787772 L47.4529193,13.4787772 Z M56.3324161,13.4421367 L48.5238111,13.4746029 C47.0741161,8.75911092 45.0693661,4.67902994 42.5598528,2.59376859 C48.0702623,3.82609497 52.8369073,7.90617595 56.3324161,13.4421367 L56.3324161,13.4421367 Z M65.1934573,13.40596 L57.5375731,13.4374987 C54.7479946,8.85419067 51.1256028,5.14932687 46.8798699,3.04783239 C53.9843902,4.60806798 60.3234604,8.2897416 65.1934573,13.40596 L65.1934573,13.40596 Z M66.1420801,14.438387 C69.0248598,17.7202618 71.3345902,21.5225244 72.9079383,25.6846987 L62.5086149,25.7273686 C61.4930902,21.5856017 60.0023313,17.7800925 58.1355377,14.4713171 L66.1420801,14.438387 Z M63.0262972,38.0357907 L51.8532187,38.0817072 C51.819537,34.1435502 51.5883794,30.3556655 51.1782016,26.810814 C54.686168,26.7959723 58.1950573,26.7815944 61.7030237,26.7672164 C62.5090763,30.3106766 62.9746212,34.0976336 63.0262972,38.0357907 L63.0262972,38.0357907 Z M51.1611301,51.4202373 C54.6248028,51.4058594 58.0880142,51.3914815 61.5609149,51.3771036 C60.5430832,55.5615404 59.0384826,59.3795723 57.1536946,62.6693318 L49.0304199,62.7027256 C49.9435155,59.3939502 50.6748225,55.5791649 51.1611301,51.4202373 L51.1611301,51.4202373 Z M39.7185984,51.4670815 L50.1266883,51.4244115 C49.6311528,55.6065293 48.8910794,59.4097195 47.9599896,62.7073637 L39.7555098,62.7407575 L39.7185984,51.4670815 Z M50.0224136,25.7788508 L39.6138623,25.8215207 L39.5589566,14.5478447 L47.762975,14.513987 C48.721287,17.8037465 49.4922737,21.6125023 50.0224136,25.7788508 L50.0224136,25.7788508 Z M48.8338668,14.5098128 L56.9571415,14.4764189 C58.8686902,17.7620042 60.4046655,21.5675134 61.4561788,25.7315428 L51.0568554,25.7746766 C50.5359434,21.6310545 49.7741845,17.8222987 48.8338668,14.5098128 L48.8338668,14.5098128 Z M50.8326187,39.1224827 C50.8303117,43.0606398 50.6213009,46.8503796 50.2484959,50.3873465 L39.7144459,50.4304802 C39.7135231,50.2848459 39.7130617,50.1508066 39.7126003,50.0125931 C39.7126003,50.0107379 39.7079864,48.9138422 39.694606,45.6389244 C39.6881465,44.0415845 39.6798415,41.9294226 39.6683066,39.1683993 L50.8326187,39.1224827 Z M39.6641541,38.131798 C39.6526193,35.3652091 39.6443142,33.2488729 39.6378547,31.6501416 C39.6378547,31.6937391 39.6332408,30.6172508 39.6198604,27.2797195 C39.6193991,27.1405784 39.6189377,27.0056115 39.6180149,26.858122 L50.1525263,26.8145244 C50.5539377,30.3598398 50.7943231,34.1477244 50.8280047,38.0858815 L39.6641541,38.131798 Z M61.7994547,50.3400385 L51.2741712,50.3831723 C51.6557427,46.8346103 51.855987,43.0453342 51.8578326,39.1183085 L63.0309111,39.0723919 C63.0110712,43.010549 62.5769009,46.8012164 61.7994547,50.3400385 L61.7994547,50.3400385 Z M38.5295902,13.5158815 L30.6397801,13.5478839 C32.5393326,7.31018822 35.3718206,2.47317963 38.7436763,2.2176238 C38.5535826,4.10716 38.5097503,8.67887288 38.5295902,13.5158815 L38.5295902,13.5158815 Z M30.8446383,63.8139993 L38.7344484,63.781533 C38.7538269,68.6301367 38.8359547,73.2013858 39.0412744,75.0886029 C35.6666503,74.8608753 32.7954054,70.0363894 30.8446383,63.8139993 L30.8446383,63.8139993 Z M21.9656028,63.8506398 L29.7742079,63.8186373 C31.2239028,68.5341293 33.2286528,72.6253416 35.7381661,74.6999355 C30.2185288,73.4555502 25.4518839,69.3754692 21.9656028,63.8506398 L21.9656028,63.8506398 Z M13.0957953,63.8872802 L20.7604459,63.8557416 C23.5407965,68.4506447 27.1724161,72.1550447 31.4181491,74.2565391 C24.3140902,72.6967674 17.9653307,69.0150937 13.0957953,63.8872802 L13.0957953,63.8872802 Z M12.1471725,62.8543894 C9.26393133,59.5845735 6.95466234,55.7823109 5.38131424,51.6085416 L15.7894041,51.5658717 C16.8049288,55.7187698 18.2956877,59.5126839 20.1532535,62.8214594 L12.1471725,62.8543894 Z M3.03697943,39.3191355 L14.2460465,39.2732189 C14.2977225,43.1997809 14.7452731,46.9867379 15.5420978,50.530198 L5.00804778,50.5733318 C3.79689272,47.043322 3.10711108,43.2572925 3.03697943,39.3191355 L3.03697943,39.3191355 Z M4.91161677,27.0009735 L15.4461282,26.957376 C14.6779098,30.5077931 14.2617339,34.2979968 14.241894,38.2366177 L3.0328269,38.2825342 C3.07066108,34.3439134 3.72999082,30.5527821 4.91161677,27.0009735 L4.91161677,27.0009735 Z M11.9506193,14.6614766 L19.9571617,14.6285465 C18.1263566,17.9526275 16.6665111,21.7701956 15.684668,25.9203109 L5.27657816,25.9629809 C6.81578323,21.7878201 9.09460032,17.9670054 11.9506193,14.6614766 L11.9506193,14.6614766 Z M31.1283946,3.11276491 C26.8992718,5.24904466 23.2985655,8.9835919 20.5551263,13.5896263 L12.890937,13.6211649 C17.7277136,8.46505939 24.036332,4.73143975 31.1283946,3.11276491 L31.1283946,3.11276491 Z M29.5693497,13.552522 L21.7607446,13.5845244 C25.2553307,7.93910601 30.0067497,3.88917227 35.4442592,2.62298822 C32.9518174,4.72912074 30.9802877,8.82543485 29.5693497,13.552522 L29.5693497,13.552522 Z M28.1708693,25.8688287 C28.6668661,21.698306 29.4069396,17.8835207 30.329263,14.5858766 L38.5332813,14.5520189 L38.5794206,25.8261588 L28.1708693,25.8688287 Z M27.4658617,38.1823526 C27.4677073,34.2437318 27.6771794,30.4544557 28.0495231,26.9058937 L38.5835731,26.8622962 C38.5844959,27.009322 38.5849573,27.1447526 38.5854187,27.2838937 C38.5854187,27.2866766 38.5895712,28.3835723 38.603413,31.6543158 C38.6094111,33.2535109 38.6181775,35.3693833 38.6292509,38.1364361 L27.4658617,38.1823526 Z M28.1454927,50.478252 C27.7445427,46.9445318 27.5036959,43.1566471 27.4700142,39.2184901 L38.6338649,39.1725735 C38.6453997,41.9335968 38.6537047,44.0462226 38.6601642,45.6430987 C38.6601642,45.5990373 38.6647782,46.6769171 38.6781585,50.0167674 C38.6786199,50.1549809 38.6790813,50.2890201 38.6800041,50.4351183 L28.1454927,50.478252 Z M28.2756054,51.5143894 L38.6836953,51.4717195 L38.7298345,62.7453956 L30.5258161,62.7787894 C29.576732,59.4894937 28.8052839,55.692333 28.2756054,51.5143894 L28.2756054,51.5143894 Z M27.2411636,51.5185637 C27.7620756,55.6737809 28.5242959,59.4820729 29.4641522,62.7834275 L21.3408775,62.8168213 C19.4293288,59.5428312 17.8933535,55.737322 16.8423016,51.5612336 L27.2411636,51.5185637 Z M26.4443389,39.2226643 C26.4780206,43.1496901 26.7096396,46.9375747 27.1198174,50.4824263 L16.5945339,50.5260238 C15.7884813,46.993695 15.3233978,43.2072017 15.2712604,39.2685809 L26.4443389,39.2226643 Z M16.7371041,25.9156729 C17.7549358,21.7428312 19.2595364,17.9247993 21.1443244,14.6239085 L29.2675991,14.5900508 C28.3545035,17.9108852 27.6236579,21.7252066 27.1364275,25.8730029 L16.7371041,25.9156729 Z M27.0238478,26.910068 C26.6427377,30.4586299 26.442032,34.247906 26.439725,38.1860631 L15.2675693,38.2324434 C15.2874092,34.2938226 15.7215794,30.5036189 16.4985642,26.9532017 L27.0238478,26.910068 Z M73.3771744,50.2922667 L62.8518908,50.3354005 C63.6021149,46.7854471 64.0275187,42.9952434 64.0473585,39.0677539 L64.0427446,38.0316164 C63.9910687,34.0934594 63.5347516,30.3065023 62.7554598,26.7630422 L71.7267737,26.7259379 L71.7263123,26.6317858 L74.3234902,26.6211183 C69.3381453,11.7668778 55.3920984,1.10124834 38.991444,1.16818363 C18.480706,1.25337595 1.91579589,18.1001171 2.00036722,38.805241 C2.08466551,59.4992336 18.7866092,76.2202839 39.2978085,76.1361899 C55.7395269,76.0681563 69.6274383,65.2262815 74.4582168,50.275106 L73.3808655,50.279744 C73.3799427,50.2839183 73.3785585,50.2880925 73.3771744,50.2922667 L73.3771744,50.2922667 Z" id="Fill-3" stroke="#00C78E" fill="#00C78E" mask="url(#mask-2)"></path>
                    </g>
                </g>
            </g>
        </g>
    </g>
</svg>