<?xml version="1.0" encoding="UTF-8"?>
<svg width="1375px" height="280px" viewBox="0 0 1375 280" version="1.1" xmlns="http://www.w3.org/2000/svg" xmlns:xlink="http://www.w3.org/1999/xlink">
    <!-- Generator: Sketch 61.2 (89653) - https://sketch.com -->
    <title>Logo</title>
    <desc>Created with Sketch.</desc>
    <defs>
        <polygon id="path-1" points="0 0.267807536 256.77994 0.267807536 256.77994 274.734173 0 274.734173"></polygon>
        <polygon id="path-3" points="0.440445728 0.113312145 43.4328426 0.113312145 43.4328426 43.1338101 0.440445728 43.1338101"></polygon>
        <polygon id="path-5" points="0.228997803 0.514881669 222.588908 0.514881669 222.588908 278.123308 0.228997803 278.123308"></polygon>
    </defs>
    <g id="PLACEHOLDER" stroke="none" stroke-width="1" fill="none" fill-rule="evenodd">
        <g id="OC_LandingPage_Desktop-Copy-2" transform="translate(-37.000000, -23.000000)">
            <g id="Logo" transform="translate(37.000000, 23.000000)">
                <g id="Group-3" transform="translate(0.000000, 4.000000)">
                    <mask id="mask-2" fill="white">
                        <use xlink:href="#path-1"></use>
                    </mask>
                    <g id="Clip-2"></g>
                    <path d="M127.777369,263.005114 C103.741733,262.832242 81.823343,252.171131 66.0571548,232.980056 C47.8791,210.84942 38.4043882,178.130188 38.6561544,138.359501 C39.1837921,55.2836724 84.3610926,11.9973303 128.883533,11.9973303 C129.044235,11.9973303 129.210294,11.9973303 129.372335,11.9973303 C152.613836,12.1651901 174.359471,23.7448305 190.606426,44.6051034 C208.852779,68.0356456 218.367666,100.897223 218.121257,139.635236 C217.868151,179.338778 207.947492,211.919694 189.433303,233.858298 C173.426062,252.822427 151.555882,263.120961 127.777369,263.005114 M215.61163,37.6463076 C191.58269,14.1123638 160.176196,0.490205355 129.447329,0.271316177 C95.8968053,0.0242265528 64.1528381,12.8352864 40.2350499,36.3208866 C14.1772489,61.9094344 0.263149239,97.0982197 0.00334795469,138.082868 C-0.255114147,178.764026 13.404541,213.639921 39.5025174,238.938407 C62.7266095,261.453106 94.8763487,274.49917 127.703714,274.734173 C127.987621,274.734173 128.274206,274.734173 128.558112,274.734173 C160.326185,274.734173 191.922842,262.156774 215.375934,240.146998 C234.084305,222.591548 256.45132,190.88619 256.776742,139.538548 C257.028508,100.076724 242.408659,63.8915229 215.61163,37.6463076" id="Fill-1" fill="#00C78E" mask="url(#mask-2)"></path>
                </g>
                <path d="M1090.69103,275.26568 C1078.81926,275.185522 1069.06486,275.122731 1058.32272,275.050589 C1057.91986,267.861719 1057.5451,261.204566 1057.08067,252.941574 C1053.78816,255.242119 1051.9398,257.252758 1049.73275,259.338212 C1030.26144,277.746582 1006.5246,280.871422 981.654108,272.836881 C956.384771,264.674087 944.110138,244.019947 943.020665,220.573623 C940.89258,174.816553 942.702122,128.872446 943.020665,82.0265575 C953.998372,82.100036 964.616043,81.9397192 977.839616,82.0265575 C977.733881,97.6467522 977.941336,113.353785 977.839616,128.824351 C977.683021,152.300066 977.752619,175.774445 977.839616,199.248824 C977.930628,224.34641 992.827223,240.275215 1015.8159,240.391445 C1039.17129,240.513018 1057.52101,222.651061 1057.91049,198.48732 C1058.49136,162.302495 1058.49404,126.109654 1058.77644,89.9194851 C1058.7925,87.9930123 1058.49671,85.103303 1058.77644,82.0265575 C1069.40616,82.097364 1080.54582,81.950407 1092,82.0265575 C1091.56635,145.536035 1091.1327,210.432253 1090.69103,275.26568" id="Fill-4" fill="#00C78E"></path>
                <path d="M1303.00139,32.2373153 C1302.88848,49.030387 1302.77955,65.0686085 1302.65867,83.0442343 C1316.26262,83.1354063 1328.67235,83.2185336 1342,83.3083648 C1341.92827,94.2355932 1341.86716,103.224076 1341.79676,113.641814 C1329.16253,113.557346 1317.08489,113.47556 1302.89512,113.380365 C1302.75166,134.671701 1302.61749,151.948789 1302.482,171.873886 C1302.37971,187.090219 1302.20702,202.305211 1302.19507,217.521544 C1302.1778,238.371768 1307.41162,243.610134 1328.08919,243.724099 C1331.98002,243.74421 1335.87218,243.775048 1340.81641,243.808567 C1340.73804,255.242604 1340.66631,266.179218 1340.58527,278.049004 C1333.70957,278.701956 1327.47548,279.522503 1321.2135,279.84965 C1285.39636,281.724038 1267.83251,266.121565 1267.23739,230.297686 C1266.67416,196.44339 1267.46056,165.21431 1267.65583,131.345265 C1267.68639,126.017068 1267.72624,120.688871 1267.77273,113.68606 C1257.71822,113.617681 1248.71179,113.557346 1239,113.49299 C1239.07306,102.73872 1239.13417,93.6858798 1239.20324,83.4491451 C1248.47933,83.512161 1257.14568,83.5698139 1267.28521,83.6381928 C1267.40344,66.0755224 1267.51502,49.6310494 1267.63325,32 C1279.62853,32.0804459 1290.15595,32.1515064 1303.00139,32.2373153" id="Fill-6" fill="#00C78E"></path>
                <path d="M1148.11378,280 C1135.91361,279.918889 1126.11352,279.854 1115,279.779648 C1115.44141,214.756949 1115.87742,148.283714 1116.32018,82.9960516 C1126.70881,83.064996 1136.96786,82.9176442 1148.54439,82.9960516 C1149.01414,89.7972158 1149.4947,99.0560459 1150.0063,106.47771 C1186.15189,81.5657928 1197.55968,78.0739607 1220,85.3631433 C1219.91226,98.1408425 1219.82452,111.242986 1219.72598,124.351889 C1210.02983,122.616112 1200.32423,119.320298 1190.66047,119.437909 C1166.75284,119.725853 1149.51899,138.670698 1149.00469,164.577578 C1148.3581,197.215326 1148.45529,229.867944 1148.23256,262.513803 C1148.19612,267.869838 1148.15967,273.225873 1148.11378,280" id="Fill-8" fill="#00C78E"></path>
                <path d="M724.181784,114.187496 C711.796055,114.104427 699.362118,114.021357 687.682117,113.943647 C686.313514,106.683097 686.308157,105.844362 684.362383,98.909391 C675.392807,66.9409977 655.29094,45.0186653 622.970737,38.7790674 C589.834996,32.3813692 561.670152,43.3706719 541.415622,72.0377189 C512.802165,112.532804 513.345857,174.864471 542.812348,214.401576 C561.840223,239.933416 595.591969,252.176801 625.840519,244.523681 C656.427872,236.784811 682.834422,206.287553 687.667387,173.103932 C687.947267,171.175914 687.774518,172.340228 688.103947,169.543998 C700.196404,169.624388 711.751864,169.702098 725,169.790527 C722.538656,209.10254 706.119431,236.210023 674.628157,257.872428 C597.691745,310.794455 491.019674,258.602636 482.984819,164.50355 C478.869635,116.30979 486.783967,71.8956967 523.302381,37.3548259 C557.916535,4.61736899 598.429612,-4.44525515 643.035108,8.97986222 C686.494298,22.0593029 711.808108,54.5689884 721.973538,98.7231544 C722.51723,101.089298 723.43856,106.011841 724.181784,114.187496" id="Fill-10" fill="#00C78E"></path>
                <path d="M872.73216,224.893628 C870.241254,228.886497 867.396602,232.340881 864.329023,235.344283 C863.717643,235.933925 863.079566,236.484526 862.446828,237.048589 C861.206714,238.151138 859.966601,239.250995 858.662412,240.202768 C858.645059,240.214883 858.62904,240.224307 858.611687,240.237769 C835.587492,256.92947 803.017495,250.28456 786.921383,221.93465 C774.68711,200.38985 772.600676,177.463834 780.544611,153.794708 C789.463015,127.219107 805.971608,113.324838 829.410953,112.580382 C830.099757,112.568266 830.780551,112.568266 831.458676,112.574997 C832.1368,112.577689 832.820264,112.587113 833.509068,112.607306 C856.933729,113.666776 873.256772,127.781825 881.816091,154.474546 C889.284804,177.776155 887.072891,200.228304 875.189694,221.242697 C874.354052,222.434096 873.52375,223.630879 872.73216,224.893628 M895.598837,252.239262 C912.369069,234.059995 921.989626,208.961191 921.990961,183.097737 C921.978947,182.879651 921.973607,182.658872 921.960258,182.439439 C922.342037,167.993222 919.964597,153.746244 915.197702,140.752592 C907.630207,119.164712 893.916875,101.867215 872.295651,90.7609534 C859.3085,83.6260219 845.747345,79.9656674 831.749682,80.0127849 C831.725654,80.0127849 831.702961,80.0127849 831.677598,80.0127849 C831.654904,80.0127849 831.633546,80.0114386 831.609518,80.0114386 C812.4218,79.6870012 793.958927,86.2672928 776.597339,99.3511417 C745.254106,122.971804 731.918548,170.748921 744.985793,213.065796 C754.201878,242.908657 771.708969,264.464227 799.431979,274.305048 C808.870991,278.209067 819.588828,280.258004 831.556123,279.973953 C849.545109,280.134152 865.52909,275.076428 878.864648,266.401428 C885.12128,262.451638 890.690444,257.715659 895.598837,252.239262" id="Fill-12" fill="#00C78E"></path>
                <g id="Group-16" transform="translate(1331.000000, 11.000000)">
                    <mask id="mask-4" fill="white">
                        <use xlink:href="#path-3"></use>
                    </mask>
                    <g id="Clip-15"></g>
                    <path d="M17.2967051,20.6125862 L23.3452732,20.6125862 C26.2829527,20.6125862 27.7511051,19.1691086 27.7511051,16.9173917 C27.7511051,14.6075572 26.4011747,13.1640796 23.4043842,13.1640796 L17.2967051,13.1640796 L17.2967051,20.6125862 Z M13.1864282,9.75676968 L24.3446616,9.75676968 C28.8082299,9.75676968 31.9218677,12.4707238 31.9218677,16.340271 C31.9218677,19.1691086 30.5114516,21.305942 27.3991884,22.1722989 L27.3991884,22.2871824 C29.8667293,22.9805382 30.746521,24.4240158 31.0998124,27.5420896 C31.451729,31.0642831 31.51084,33.0281154 32.2160481,33.316 L32.2160481,33.5471186 L28.1030218,33.5471186 C27.5174105,33.259234 27.3414521,31.2372841 27.1641191,28.1205619 C26.9881608,25.1741376 25.5186337,23.7887775 22.4063705,23.7887775 L17.2967051,23.7887775 L17.2967051,33.5471186 L13.1864282,33.5471186 L13.1864282,9.75676968 Z M40.7307823,21.6532957 C40.7307823,10.565009 32.6848121,2.36502907 21.9362318,2.36502907 C11.1890261,2.36502907 3.14168123,10.565009 3.14168123,21.6532957 C3.14168123,32.7402308 11.1890261,40.8820932 21.9362318,40.8820932 C32.6848121,40.8820932 40.7307823,32.7402308 40.7307823,21.6532957 L40.7307823,21.6532957 Z M0.440445728,21.6532957 C0.440445728,9.29453247 9.83772099,0.113312145 21.9362318,0.113312145 C34.0361172,0.113312145 43.4333925,9.29453247 43.4333925,21.6532957 C43.4333925,34.0093558 34.0361172,43.1338101 21.9362318,43.1338101 C9.83772099,43.1338101 0.440445728,34.0093558 0.440445728,21.6532957 L0.440445728,21.6532957 Z" id="Fill-14" fill="#00C78E" mask="url(#mask-4)"></path>
                </g>
                <g id="Group-19" transform="translate(264.000000, 0.000000)">
                    <mask id="mask-6" fill="white">
                        <use xlink:href="#path-5"></use>
                    </mask>
                    <g id="Clip-18"></g>
                    <path d="M216.810071,8.11369943 C211.119126,3.46359012 202.837617,1.16549262 191.485165,1.09001258 C172.162981,1.10079544 155.719053,8.411576 144.153843,22.5452126 C132.535109,36.7448942 126.307585,57.1582002 126.145675,81.5571216 L126.021232,87.5267837 C124.374029,87.4364772 121.642964,87.4216508 117.117505,87.3987372 L63.7888129,87.1264699 L64.0885476,55.4194637 C64.2745437,27.6172014 71.1483705,21.0463948 74.0948697,19.5138805 C77.2621556,17.8641026 80.5324754,19.3615725 82.7162568,20.8994783 L105.459966,37.126338 L105.750334,37.2975159 C107.323941,38.1035349 108.674085,38.1089263 110.278469,37.3136902 C117.121519,33.82813 121.42753,28.1280395 122.092566,21.6771922 C122.662597,16.1563668 120.53234,10.8687207 116.401621,7.54085988 C110.710676,2.89209842 102.429166,0.59400092 91.0820666,0.514477312 L90.5776024,0.514477312 C71.4253575,0.514477312 55.2303166,7.93443435 43.7467306,21.9723731 C32.1279964,36.1720547 25.9018107,56.5840128 25.7385623,80.9869778 L25.6315142,86.8690291 C12.8218698,86.7948969 3.84320961,86.8771162 3.72679479,86.8771162 L2.41545544,86.8878991 L2.41545544,100.227647 L3.74686631,100.218212 C3.86328113,100.218212 12.9583561,100.13195 25.5244661,100.208777 L25.5244661,248.552656 C25.1096547,264.131196 12.6693263,266.197462 8.5225501,266.448164 C8.15323412,266.471077 6.53011716,266.480512 6.53011716,266.480512 L0.228997803,266.480512 L0.228997803,278.123308 L88.0004192,278.123308 L88.0004192,266.480512 L81.8558577,266.480512 L81.1720879,266.479164 C81.1720879,266.479164 80.117664,266.469729 79.708205,266.441424 C75.4931856,266.166461 63.3298442,264.030107 62.8093227,248.760226 L62.892285,235.096992 L63.697822,100.466218 L125.928903,100.785661 L125.039065,248.824923 C124.434243,265.514098 109.886405,266.457599 107.160693,266.480512 L106.740529,266.480512 C106.728486,266.480512 106.681652,266.479164 106.681652,266.479164 L106.681652,266.480512 L100.455467,266.480512 L100.455467,278.123308 L191.184092,278.123308 L191.184092,266.317421 L189.858034,266.321465 C188.439646,266.325509 185.036854,266.328204 180.214337,266.328204 C175.866846,266.045154 163.273974,263.837363 163.273974,247.680592 L163.257916,247.737202 L164.102258,101.040406 C172.666107,101.09432 178.208523,101.076798 184.453442,101.05658 C188.019482,101.044449 194.002134,101.032319 198.721617,101.032319 L200.043661,101.032319 L200.043661,87.6858309 L198.716265,87.6925702 C198.528931,87.693918 178.227257,87.7855724 164.205292,87.7006573 L164.49566,55.9923032 C164.682994,28.1873452 171.555483,21.6192343 174.501982,20.08672 C177.662578,18.4396378 180.93825,19.9330642 183.122031,21.4736657 L205.85905,37.6924383 L206.157446,37.8703555 C207.729716,38.6763744 209.082536,38.6844616 210.68692,37.8851819 C217.528632,34.3996217 221.834642,28.7008791 222.497002,22.2486839 C223.06971,16.7292063 220.94079,11.4429081 216.810071,8.11369943" id="Fill-17" fill="#00C78E" mask="url(#mask-6)"></path>
                </g>
            </g>
        </g>
    </g>
</svg>